HIERARCHY
ROOT root
{
	OFFSET	0	13.1	24.9
	CHANNELS 6  Xposition Yposition Zposition Xrotation Yrotation Zrotation
	JOINT spine_1
	{
		OFFSET	0	9.99999	0
		CHANNELS 3  Xrotation Yrotation Zrotation
		JOINT spine_2
		{
			OFFSET	0	112	-10
			CHANNELS 3  Xrotation Yrotation Zrotation
			JOINT spine_3
			{
				OFFSET	0	206.5	19.3
				CHANNELS 3  Xrotation Yrotation Zrotation
				JOINT spine_4
				{
					OFFSET	0	110.4	14.6
					CHANNELS 3  Xrotation Yrotation Zrotation
					JOINT neck_1
					{
						OFFSET	0	71.8	-50.3
						CHANNELS 3  Xrotation Yrotation Zrotation
						JOINT neck_2
						{
							OFFSET	0	86.2	-25.8
							CHANNELS 3  Xrotation Yrotation Zrotation
							JOINT head_ee
							{
								OFFSET	0	179.8	-8.7
								CHANNELS 3  Xrotation Yrotation Zrotation
								End Site
								{
									OFFSET	1	0	0
								}
							}
						}
					}
					JOINT left_clavicle
					{
						OFFSET	-43.2	22.4	-70.8
						CHANNELS 3  Xrotation Yrotation Zrotation
						JOINT left_shoulder
						{
							OFFSET	-93.9	-5.79999	48.7
							CHANNELS 3  Xrotation Yrotation Zrotation
							JOINT left_elbow
							{
								OFFSET	-291.4	-30.8	15.2
								CHANNELS 3  Xrotation Yrotation Zrotation
								JOINT left_lowarm_twist
								{
									OFFSET	-110.7	-3.89999	13.6
									CHANNELS 3  Xrotation Yrotation Zrotation
									JOINT left_hand
									{
										OFFSET	-110.7	-3.89999	13.6
										CHANNELS 3  Xrotation Yrotation Zrotation
										JOINT left_ee
										{
											OFFSET	-80.8	-5.10001	12.1
											CHANNELS 3  Xrotation Yrotation Zrotation
											End Site
											{
												OFFSET	1	0	0
											}
										}
									}
								}
							}
						}
					}
					JOINT right_clavicle
					{
						OFFSET	43.2	22.4	-70.8
						CHANNELS 3  Xrotation Yrotation Zrotation
						JOINT right_shoulder
						{
							OFFSET	93.9	-5.79999	48.7
							CHANNELS 3  Xrotation Yrotation Zrotation
							JOINT right_elbow
							{
								OFFSET	291.4	-30.8	15.2
								CHANNELS 3  Xrotation Yrotation Zrotation
								JOINT right_lowarm_twist
								{
									OFFSET	110.7	-3.89999	13.6
									CHANNELS 3  Xrotation Yrotation Zrotation
									JOINT right_hand
									{
										OFFSET	110.7	-3.89999	13.6
										CHANNELS 3  Xrotation Yrotation Zrotation
										JOINT right_ee
										{
											OFFSET	80.8	-5.10001	12.1
											CHANNELS 3  Xrotation Yrotation Zrotation
											End Site
											{
												OFFSET	1	0	0
											}
										}
									}
								}
							}
						}
					}
				}
			}
		}
	}
	JOINT left_hip
	{
		OFFSET	-82.8	-127.5	0.300001
		CHANNELS 3  Xrotation Yrotation Zrotation
		JOINT left_knee
		{
			OFFSET	-28.2	-396.7	2.2
			CHANNELS 3  Xrotation Yrotation Zrotation
			JOINT left_ankle
			{
				OFFSET	-11.7	-411.3	35.4
				CHANNELS 3  Xrotation Yrotation Zrotation
				JOINT left_toes
				{
					OFFSET	0	-60	-88.6
					CHANNELS 3  Xrotation Yrotation Zrotation
					JOINT left_foot_ee
					{
						OFFSET	-22.5	-16.5	-42.2
						CHANNELS 3  Xrotation Yrotation Zrotation
						End Site
						{
							OFFSET	1	0	0
						}
					}
				}
			}
		}
	}
	JOINT right_hip
	{
		OFFSET	82.8	-127.5	0.300001
		CHANNELS 3  Xrotation Yrotation Zrotation
		JOINT right_knee
		{
			OFFSET	28.2	-396.7	2.2
			CHANNELS 3  Xrotation Yrotation Zrotation
			JOINT right_ankle
			{
				OFFSET	11.7	-411.3	35.4
				CHANNELS 3  Xrotation Yrotation Zrotation
				JOINT right_toes
				{
					OFFSET	0	-60	-88.6
					CHANNELS 3  Xrotation Yrotation Zrotation
					JOINT right_foot_ee
					{
						OFFSET	22.5	-16.5	-42.2
						CHANNELS 3  Xrotation Yrotation Zrotation
						End Site
						{
							OFFSET	1	0	0
						}
					}
				}
			}
		}
	}
}
MOTION
Frames: 15
Frame Time: 0.02
1315.6 695.438 -1319.77 -4.98266 74.6493 0.807766 -0.052072 0.0982241 1.15846 -0.0513256 0.0243145 1.16236 -0.0504746 -0.221562 1.14131 -0.0522906 -0.0385457 1.16197 4.69473 8.42715 -1.69169 5.0331 15.9654 -1.52499 -0.0 0.0 -0.0 4.90894 17.7645 9.63414 31.8089 -31.9867 65.1828 3.47205 -59.8112 1.99738 -14.7004 -0.743258 1.72131 -6.87419 13.5287 -41.4675 -0.0 0.0 -0.0 8.32031 6.69204 -16.2643 -30.6123 4.70713 -66.2022 0.357879 10.0533 -0.0314782 -13.3837 0.65889 -1.57543 0.624748 -29.1356 -14.8466 0.0 0.0 0.0 -16.5888 -14.0145 11.6271 -0.718919 0.0289339 0.106532 42.6923 25.5021 -5.43659 -23.9784 0.0 0.0 -0.0 0.0 -0.0 31.8035 17.1844 -2.22916 -2.07057 -0.0796992 -0.307749 -22.1424 2.4111 -3.39368 -4.15512 0.0 0.0 0.0 0.0 0.0 
1292.84 702.051 -1326.04 -4.50967 74.0192 0.561193 0.18308 0.374872 1.21718 0.183855 0.296667 1.23856 0.190762 0.0339933 1.27314 0.188576 0.234619 1.2518 6.09179 8.911 -3.39564 6.63525 18.1375 -3.67309 -0.0 0.0 -0.0 2.8705 16.7903 6.44091 30.126 -31.8962 67.7299 3.42811 -59.4934 1.95946 -16.3309 -0.85236 1.89923 -7.62691 13.8933 -48.0683 -0.0 0.0 -0.0 8.43831 5.81582 -16.5203 -29.7779 5.15408 -66.6227 0.34401 9.6712 -0.0291026 -13.6427 0.675216 -1.60427 0.625277 -29.1705 -14.8603 0.0 0.0 0.0 -16.3058 -13.8752 11.3572 -3.83771 0.138876 0.572487 40.1216 24.6591 -5.16856 -22.6099 0.0 0.0 -0.0 0.0 -0.0 31.1916 17.5307 -2.69467 -4.01647 -0.144407 -0.599365 -21.7026 3.40761 -3.33803 1.41444 -0.0 -0.0 0.0 0.0 0.0 
1274.55 704.241 -1329.64 -6.37246 73.7388 2.49216 0.336144 0.397823 1.28873 0.337013 0.315019 1.31143 0.344735 0.0405005 1.34812 0.342288 0.252883 1.32481 7.16393 8.40868 -5.52341 7.91141 19.0658 -6.37614 -0.0 0.0 -0.0 2.21119 15.8853 5.35976 28.0366 -31.7628 68.6544 3.13094 -57.1756 1.70648 -16.2656 -0.847888 1.89216 -7.90478 13.5726 -51.2893 -0.0 0.0 -0.0 8.60065 5.36824 -16.8629 -28.6727 5.63004 -66.3134 0.334754 9.41571 -0.027568 -13.7094 0.679442 -1.61169 0.588735 -29.15 -14.65 0.0 0.0 0.0 -15.855 -13.8106 11.2028 -5.63809 0.190734 0.843911 39.5981 24.5268 -5.1141 -20.8905 0.0 0.0 -0.0 0.0 -0.0 31.0724 18.5118 -3.3265 -5.09489 -0.175988 -0.761853 -21.5577 4.25056 -3.32655 2.69496 -0.0 -0.0 0.0 0.0 0.0 
1252.53 703.456 -1333.05 -7.43906 72.8555 3.93775 0.587831 0.277281 1.12535 0.588512 0.205115 1.14071 0.592902 -0.0272181 1.15868 0.591062 0.156103 1.14844 8.84477 8.53149 -7.74743 9.98111 21.1194 -9.41021 -0.0 0.0 -0.0 0.389646 12.4929 2.1235 25.3494 -31.8203 68.9794 2.76478 -53.8552 1.40453 -16.9301 -0.893723 1.96383 -8.504 15.6167 -55.3913 -0.0 0.0 -0.0 8.96017 5.79222 -17.62 -26.8824 6.54868 -65.2599 0.333201 9.37282 -0.0273147 -13.2796 0.65236 -1.56381 0.813027 -29.3071 -15.952 0.0 0.0 0.0 -15.4045 -13.6983 11.3693 -8.9804 0.264283 1.35147 37.1017 24.0462 -4.8528 -19.902 0.0 0.0 -0.0 0.0 -0.0 30.5672 18.5637 -4.27698 -5.94418 -0.198701 -0.890209 -18.3808 -0.956453 -2.78696 7.27989 -0.0 -0.0 0.0 0.0 0.0 
1231.55 703.619 -1338.73 -7.60761 73.7719 3.97014 0.716856 -0.0843003 1.00662 0.717408 -0.14818 0.999218 0.714907 -0.343093 0.9501 0.713697 -0.188744 0.992356 8.8911 9.8892 -6.40953 10.0202 22.1637 -7.7944 -0.0 0.0 -0.0 -0.609142 10.8103 0.240637 21.2453 -32.2449 69.437 2.63054 -52.4882 1.29707 -16.2336 -0.845706 1.8887 -8.81828 17.2618 -56.7658 -0.0 0.0 -0.0 9.41486 3.96943 -18.5635 -25.616 6.81838 -63.1285 0.33939 9.54374 -0.0283316 -12.0941 0.579542 -1.43074 0.721909 -29.0896 -15.3764 0.0 0.0 0.0 -14.7203 -12.0289 11.4957 -11.9051 0.304263 1.79841 37.5249 26.1067 -4.95875 -19.9101 0.0 0.0 -0.0 0.0 -0.0 30.8551 18.9956 -4.78065 -10.2673 -0.284685 -1.54788 -17.4576 -4.35149 -2.62907 14.8005 -0.0 -0.0 0.0 0.0 0.0 
1210.62 706.73 -1343.1 -9.42007 72.2436 4.85797 0.950895 -0.0640338 1.14694 0.951616 -0.136882 1.14054 0.948978 -0.355549 1.09233 0.947358 -0.178586 1.13476 9.77774 9.69459 -7.51513 11.1009 22.7425 -9.35152 -0.0 0.0 -0.0 -1.50825 10.8251 -1.29261 16.8581 -32.7086 70.0239 2.39212 -49.8318 1.11132 -17.1376 -0.908201 1.9861 -9.11445 19.1795 -57.3662 -0.0 0.0 -0.0 9.25695 4.77963 -18.2415 -23.6235 8.2774 -63.8055 0.37596 10.5501 -0.0347116 -11.3177 0.53335 -1.34279 0.515833 -29.0616 -14.2162 0.0 0.0 0.0 -12.6728 -9.71488 12.6954 -14.1482 0.319441 2.14221 35.112 26.8198 -4.72877 -20.917 0.0 0.0 -0.0 0.0 -0.0 30.6544 19.3532 -5.33964 -11.9342 -0.304546 -1.80287 -13.9302 -8.70918 -2.0861 20.2031 -0.0 -0.0 0.0 0.0 0.0 
1197.14 709.362 -1343.63 -10.6483 71.5745 5.95726 1.11909 -0.0633703 1.35574 1.1201 -0.149503 1.34897 1.11667 -0.404595 1.29553 1.11438 -0.194933 1.34315 9.3208 9.9683 -6.97169 10.5718 22.7516 -8.58499 -0.0 0.0 -0.0 -2.07655 10.5024 -2.31912 14.1022 -32.6937 70.0658 2.18788 -47.2971 0.958164 -17.9595 -0.966362 2.07381 -8.83954 18.5513 -55.0472 -0.0 0.0 -0.0 9.64748 3.72908 -19.0488 -22.7431 10.2449 -63.1838 0.627774 17.2748 -0.0953619 -10.4737 0.484501 -1.2465 0.531186 -28.5621 -14.1451 0.0 0.0 0.0 -11.4286 -9.45446 12.5431 -14.9972 0.321672 2.27246 32.5238 27.1564 -4.45398 -21.5244 0.0 0.0 -0.0 0.0 -0.0 30.4245 19.7108 -5.784 -12.4535 -0.309217 -1.88241 -11.0288 -11.9051 -1.64898 21.4169 -0.0 -0.0 0.0 0.0 0.0 
1184.67 711.222 -1349.19 -12.2368 71.3527 7.48795 1.19593 -0.0612838 1.43166 1.19706 -0.15225 1.42486 1.19336 -0.419974 1.37006 1.19079 -0.198351 1.41918 9.07915 10.0048 -7.50199 10.4091 23.3102 -9.20465 -0.0 0.0 -0.0 -2.62423 10.198 -3.31793 11.2479 -33.3121 70.5179 1.86053 -42.661 0.726583 -19.3837 -1.07011 2.2238 -9.14299 20.4758 -55.5741 -0.0 0.0 -0.0 9.80959 1.17644 -19.312 -20.9527 11.8384 -62.7092 0.646121 17.7484 -0.100883 -9.84271 0.448912 -1.17404 0.549947 -27.3401 -13.8633 0.0 0.0 0.0 -9.23753 -8.32368 12.0551 -17.8744 0.314883 2.7138 32.9194 27.3933 -4.50572 -22.4265 0.0 0.0 -0.0 0.0 -0.0 30.5585 19.9214 -6.02743 -14.24 -0.319775 -2.15629 -7.26833 -16.0172 -1.08823 25.6634 -0.0 -0.0 0.0 0.0 0.0 
1169.61 710.656 -1355.24 -13.7004 71.1861 8.74368 1.39105 0.030557 1.51428 1.39232 -0.0658514 1.51316 1.39067 -0.346814 1.47436 1.38765 -0.109643 1.51062 8.165 9.92117 -6.78172 9.31619 22.6215 -8.11627 -0.0 0.0 -0.0 -3.1535 10.8575 -4.1104 8.26786 -33.9333 70.8485 1.63155 -38.9429 0.576883 -21.3093 -1.21626 2.42244 -9.07451 21.2015 -53.6315 -0.0 0.0 -0.0 10.3262 -0.122855 -20.3236 -19.6281 13.1557 -62.5901 0.692001 18.9216 -0.115316 -8.66248 0.384502 -1.03751 0.481294 -26.488 -13.196 0.0 0.0 0.0 -7.37526 -7.32129 11.7337 -22.3389 0.260527 3.39651 32.2131 26.6999 -4.40542 -23.0361 0.0 0.0 -0.0 0.0 -0.0 30.2959 19.8908 -6.5131 -15.0327 -0.321724 -2.2779 -2.9704 -18.6897 -0.444553 27.8588 -0.0 -0.0 0.0 0.0 0.0 
1159.73 714.093 -1360.77 -13.6404 71.3072 8.43382 1.5465 0.196533 1.62212 1.54796 0.0929287 1.63133 1.55073 -0.208276 1.62065 1.54707 0.0502548 1.6332 7.5103 9.84285 -6.45432 8.56768 22.2642 -7.58254 -0.0 0.0 -0.0 -3.60058 11.6532 -4.71973 6.01275 -34.5355 71.1366 1.52316 -37.0331 0.510159 -22.6697 -1.32352 2.5598 -9.00359 21.7251 -52.0562 -0.0 0.0 -0.0 10.8015 -1.28505 -21.2366 -18.0151 14.6913 -62.6606 0.760415 20.6407 -0.138472 -7.77403 0.337884 -0.933878 0.463756 -25.7618 -12.8557 0.0 0.0 0.0 -5.38843 -6.70016 11.0557 -25.534 0.189058 3.88155 31.7988 26.1983 -4.34431 -23.4881 0.0 0.0 -0.0 0.0 -0.0 30.0295 19.892 -6.80601 -15.7585 -0.322032 -2.38925 0.0811189 -20.6932 0.0121469 29.2258 -0.0 -0.0 0.0 0.0 0.0 
1143.92 713.194 -1368.84 -14.6967 72.3603 9.47723 1.7051 0.479166 1.78966 1.70681 0.364334 1.81651 1.71858 0.030052 1.85243 1.71393 0.322183 1.82446 5.47627 9.87001 -5.93293 6.36118 22.0392 -6.55844 -0.0 0.0 -0.0 -4.01708 14.4116 -4.83308 3.47576 -33.982 71.6887 1.5325 -37.2017 0.515797 -27.2495 -1.70812 3.00296 -8.39387 19.8243 -48.5287 -0.0 0.0 -0.0 11.0626 -1.98757 -21.7251 -16.027 15.8654 -63.4319 0.912155 24.3157 -0.196517 -5.70139 0.235432 -0.689445 0.654217 -23.2722 -13.1418 0.0 0.0 0.0 -3.38467 -6.03774 9.88204 -29.9383 0.0464258 4.54226 32.6851 26.5957 -4.45547 -24.1108 0.0 0.0 -0.0 0.0 -0.0 28.0946 20.028 -6.49899 -15.7546 -0.322034 -2.38866 1.51012 -20.8923 0.225557 27.9917 -0.0 -0.0 0.0 0.0 0.0 
1132.97 716.133 -1374.35 -14.3629 72.8895 9.30433 1.94228 0.683936 1.83118 1.94397 0.566048 1.87098 1.96265 0.226992 1.94148 1.95778 0.53071 1.8813 3.86105 9.75348 -5.22325 4.57184 21.3656 -5.4223 -0.0 0.0 -0.0 -4.46642 16.099 -5.17987 1.1519 -35.2232 71.2951 1.30358 -32.851 0.384309 -30.2885 -1.98243 3.27961 -8.09615 19.7317 -45.8247 -0.0 0.0 -0.0 11.2593 -2.08685 -22.125 -14.1583 17.0502 -63.8487 1.03344 27.1089 -0.249152 -3.51254 0.136927 -0.427518 0.515597 -22.7196 -12.1326 0.0 0.0 0.0 -1.61398 -3.48243 9.08612 -35.0633 -0.182928 5.29495 33.3175 26.6261 -4.52683 -24.2249 0.0 0.0 -0.0 0.0 -0.0 26.6056 20.0255 -6.13661 -15.151 -0.32187 -2.29605 6.36327 -22.0001 0.942814 31.1303 -0.0 -0.0 0.0 0.0 0.0 
1118.84 722.91 -1377.3 -13.5318 74.0088 7.78835 1.94328 0.777279 1.93829 1.94513 0.65239 1.9838 1.96797 0.292322 2.06773 1.96253 0.615148 1.99566 1.97626 9.63612 -4.03107 2.482 20.3104 -3.73206 -0.0 0.0 -0.0 -5.07151 18.5721 -5.52655 -0.18576 -36.3668 71.2577 1.25772 -31.9232 0.359747 -32.8271 -2.22261 3.49937 -7.41668 18.7065 -41.0079 -0.0 0.0 -0.0 11.0676 -0.739326 -21.8294 -13.2344 17.9221 -64.4608 1.12934 29.2235 -0.294427 -1.94021 0.0723898 -0.237172 0.609726 -19.7079 -11.6554 0.0 0.0 0.0 1.94827 -1.46597 6.58803 -39.0818 -0.409389 5.86933 32.9233 26.7345 -4.4862 -25.4664 0.0 0.0 -0.0 0.0 -0.0 23.8295 20.1059 -4.96147 -14.4094 -0.320333 -2.18228 6.2237 -22.1413 0.923062 29.9256 -0.0 -0.0 0.0 0.0 0.0 
1107.24 728.606 -1380.51 -13.022 75.7938 7.07601 1.87706 0.509292 2.037 1.87929 0.378668 2.06527 1.89308 0.00559383 2.09967 1.88708 0.337055 2.07246 -0.326896 8.28945 -3.62359 -0.0247965 17.7481 -3.01353 -0.0 0.0 -0.0 -5.2422 19.8763 -5.44914 -1.56752 -40.8968 71.0259 1.03594 -27.1652 0.250294 -35.0712 -2.44288 3.68467 -6.11632 15.7489 -33.3809 -0.0 0.0 -0.0 10.8531 1.60028 -21.5203 -12.5518 18.857 -65.3222 1.32675 33.3127 -0.39696 -0.805391 0.0290729 -0.0987437 0.835191 -16.2836 -11.8451 0.0 0.0 0.0 4.35275 1.56065 4.41207 -42.4775 -0.631862 6.34158 31.9498 22.1715 -4.26206 -26.6414 0.0 0.0 -0.0 0.0 -0.0 21.8701 20.0113 -4.08443 -13.6353 -0.317157 -2.06356 5.28937 -22.4137 0.787453 23.8954 -0.0 -0.0 0.0 0.0 0.0 
1093.42 727.587 -1385.63 -13.6144 78.4989 7.74037 1.86518 0.321657 2.13379 1.86769 0.185259 2.14992 1.87468 -0.200612 2.14854 1.86827 0.141147 2.15326 -0.701912 8.09495 -3.15629 -0.446296 17.0449 -2.47203 -0.0 0.0 -0.0 -5.6456 21.2044 -5.6916 -3.26458 -41.094 70.3182 0.983476 -25.9742 0.226825 -38.7836 -2.82274 3.97193 -4.60558 12.8448 -24.5229 -0.0 0.0 -0.0 10.7854 0.808075 -21.335 -10.9907 18.8844 -65.1363 1.51223 36.8349 -0.503588 0.689266 -0.0237752 0.0848192 0.964657 -11.9011 -11.0868 0.0 0.0 0.0 6.5993 2.28882 3.53149 -44.878 -0.805902 6.66723 31.4213 26.15 -4.30009 -29.0126 0.0 0.0 -0.0 0.0 -0.0 19.9999 19.0122 -3.67724 -13.8337 -0.318124 -2.09399 6.83789 -24.7759 1.02527 25.5753 -0.0 -0.0 0.0 0.0 0.0 
